<?xml version="1.0" standalone="no"?><!DOCTYPE svg PUBLIC "-//W3C//DTD SVG 1.1//EN" "http://www.w3.org/Graphics/SVG/1.1/DTD/svg11.dtd"><svg t="1587805766612" class="icon" viewBox="0 0 1303 1024" version="1.1" xmlns="http://www.w3.org/2000/svg" p-id="3336" xmlns:xlink="http://www.w3.org/1999/xlink" width="254.4921875" height="200"><defs><style type="text/css"></style></defs><path d="M398.103092 134.70295l28.765078-57.530156A139.6363 139.6363 0 0 1 551.749567 0.000465h199.773a139.6363 139.6363 0 0 1 124.881398 77.172329l28.765078 57.530156A93.090867 93.090867 0 0 0 988.485369 186.182199H1210.181268a93.090867 93.090867 0 0 1 93.090867 93.090867v651.636067a93.090867 93.090867 0 0 1-93.090867 93.090867H93.090867a93.090867 93.090867 0 0 1-93.090867-93.090867V279.273066a93.090867 93.090867 0 0 1 93.090867-93.090867h221.742444a93.090867 93.090867 0 0 0 83.269781-51.479249zM651.636067 837.818266a232.727167 232.727167 0 1 0 0-465.454333 232.727167 232.727167 0 0 0 0 465.454333z" fill="#4C4C4C" p-id="3337"></path></svg>