<?xml version="1.0" standalone="no"?><!DOCTYPE svg PUBLIC "-//W3C//DTD SVG 1.1//EN" "http://www.w3.org/Graphics/SVG/1.1/DTD/svg11.dtd"><svg t="1587806153584" class="icon" viewBox="0 0 1024 1024" version="1.1" xmlns="http://www.w3.org/2000/svg" p-id="32939" xmlns:xlink="http://www.w3.org/1999/xlink" width="200" height="200"><defs><style type="text/css"></style></defs><path d="M1024 939.068235s0-162.936471-120.289882-222.087529c-76.077176-37.466353-46.742588-8.854588-140.227765-47.164235-93.424941-38.249412-115.591529-50.778353-115.591529-50.778353l-0.783059-87.823059s34.936471-26.262588 45.899294-109.266824c21.865412 6.204235 29.214118-25.359059 30.418823-45.537882 1.325176-19.516235 12.950588-80.293647-13.854117-74.872471 5.541647-40.598588 9.818353-77.281882 7.830588-96.737882-6.625882-68.186353-54.272-139.384471-174.561882-144.564706-102.219294 5.180235-168.658824 76.498824-175.284706 144.624941-1.987765 19.456 1.987765 56.079059 7.408941 96.737883-26.684235-5.481412-15.179294 55.416471-14.034824 74.932706 1.325176 20.178824 8.553412 51.802353 30.418824 45.598117 10.842353 83.064471 45.899294 109.507765 45.899294 109.507765l-0.903529 88.304941s-22.106353 13.372235-115.531295 51.621647c-93.485176 38.369882-64.150588 7.951059-140.288 45.417412C60.235294 776.192 60.235294 939.068235 60.235294 939.068235c0 11.866353 4.758588 23.250824 13.251765 31.62353 8.432941 8.432941 19.877647 13.131294 31.924706 13.131294h873.411764c24.937412 0 45.176471-19.998118 45.176471-44.694588v-0.060236z" p-id="32940"></path></svg>