<?xml version="1.0" standalone="no"?><!DOCTYPE svg PUBLIC "-//W3C//DTD SVG 1.1//EN" "http://www.w3.org/Graphics/SVG/1.1/DTD/svg11.dtd"><svg t="1587806103108" class="icon" viewBox="0 0 1024 1024" version="1.1" xmlns="http://www.w3.org/2000/svg" p-id="32170" xmlns:xlink="http://www.w3.org/1999/xlink" width="200" height="200"><defs><style type="text/css"></style></defs><path d="M906.192 432.627c-67.085 67.085-175.866 67.085-242.95 0l-67.493-67.488c-67.094-67.085-67.094-175.86 0-242.955l67.492-67.488c67.085-67.085 175.861-67.085 242.95 0l67.484 67.484c67.094 67.094 67.094 175.865 0 242.955l-67.479 67.492zM439.033 291.38c0 94.877-76.913 171.79-171.795 171.79h-95.442C76.909 463.172 0 386.263 0 291.382v-95.443c0-94.886 76.914-171.8 171.791-171.8h95.447c94.882 0 171.795 76.91 171.795 171.792v95.442z m565.2 553.178c0 94.873-76.913 171.792-171.795 171.792h-95.442c-94.882 0-171.796-76.919-171.796-171.796v-95.45c0-94.874 76.914-171.792 171.791-171.792h95.447c94.882 0 171.795 76.918 171.795 171.791v95.45z m-565.2 0c0 94.873-76.913 171.792-171.795 171.792h-95.442C76.909 1016.35 0 939.432 0 844.555v-95.45c0-94.874 76.914-171.792 171.791-171.792h95.447c94.882 0 171.795 76.918 171.795 171.791v95.45z" p-id="32171"></path></svg>