<?xml version="1.0" standalone="no"?><!DOCTYPE svg PUBLIC "-//W3C//DTD SVG 1.1//EN" "http://www.w3.org/Graphics/SVG/1.1/DTD/svg11.dtd"><svg t="1587806179595" class="icon" viewBox="0 0 1024 1024" version="1.1" xmlns="http://www.w3.org/2000/svg" p-id="33692" xmlns:xlink="http://www.w3.org/1999/xlink" width="200" height="200"><defs><style type="text/css"></style></defs><path d="M1024 314.8v542.3c0 54.2-43.9 98.6-97.5 98.6h-829C43.9 955.7 0 911.4 0 857.1V166.9c0-54.2 43.9-98.6 97.5-98.6h341.3c87.8 0 63.4 147.9 146.3 147.9h336.5c58.5 0 102.4 39.4 102.4 98.6z m-877.1 49.4c-27.2 0-49.3 22.1-49.3 49.3 0 27.2 22.1 49.3 49.3 49.3h730.8c27.2 0 49.3-22.1 49.3-49.3 0-27.2-22.1-49.3-49.3-49.3H146.9z" p-id="33693"></path></svg>