<?xml version="1.0" standalone="no"?><!DOCTYPE svg PUBLIC "-//W3C//DTD SVG 1.1//EN" "http://www.w3.org/Graphics/SVG/1.1/DTD/svg11.dtd"><svg t="1587805728838" class="icon" viewBox="0 0 1267 1024" version="1.1" xmlns="http://www.w3.org/2000/svg" p-id="2562" xmlns:xlink="http://www.w3.org/1999/xlink" width="247.4609375" height="200"><defs><style type="text/css"></style></defs><path d="M1170.236854 645.857132V97.520977H97.520977v512.289975l261.171229-239.014129a97.535848 97.535848 0 0 1 123.261875-6.899929l116.689099 85.014856a43.362484 43.362484 0 0 0 5.754897 4.9965l215.905317 156.482653a42.009265 42.009265 0 0 0 58.262761-9.056156 40.938586 40.938586 0 0 0-9.175121-57.608458l-44.834667-32.506992 22.677568-17.844644a97.535848 97.535848 0 0 1 119.276572-1.338348l203.726347 153.820827zM48.760489 0h1170.311206a48.760489 48.760489 0 0 1 48.760489 48.760489v926.434411a48.760489 48.760489 0 0 1-48.760489 48.760488h-1170.311206A48.760489 48.760489 0 0 1 0 975.1949v-926.434411A48.760489 48.760489 0 0 1 48.760489 0z" fill="#58595B" p-id="2563"></path></svg>