<?xml version="1.0" standalone="no"?><!DOCTYPE svg PUBLIC "-//W3C//DTD SVG 1.1//EN" "http://www.w3.org/Graphics/SVG/1.1/DTD/svg11.dtd"><svg t="1587805856606" class="icon" viewBox="0 0 1024 1024" version="1.1" xmlns="http://www.w3.org/2000/svg" p-id="6347" xmlns:xlink="http://www.w3.org/1999/xlink" width="200" height="200"><defs><style type="text/css"></style></defs><path d="M426.24 419.2c11.52 36.48 45.44 62.72 85.76 62.72 40.32 0 74.24-26.24 85.76-62.72 101.12-7.04 194.56-25.6 272.64-53.76v504.96c0 49.28-40.32 89.6-89.6 89.6H243.2c-49.28 0-89.6-40.32-89.6-89.6V365.44c78.08 28.16 171.52 47.36 272.64 53.76zM595.2 358.4c-13.44-32.64-45.44-55.68-83.2-55.68s-69.76 23.04-83.2 55.68C320 348.16 224 316.16 153.6 271.36V153.6c0-49.28 40.32-89.6 89.6-89.6h537.6c49.28 0 89.6 40.32 89.6 89.6v117.76c-70.4 44.8-166.4 76.8-275.2 87.04z" p-id="6348"></path></svg>