<?xml version="1.0" standalone="no"?><!DOCTYPE svg PUBLIC "-//W3C//DTD SVG 1.1//EN" "http://www.w3.org/Graphics/SVG/1.1/DTD/svg11.dtd"><svg t="1587807593693" class="icon" viewBox="0 0 1024 1024" version="1.1" xmlns="http://www.w3.org/2000/svg" p-id="42440" xmlns:xlink="http://www.w3.org/1999/xlink" width="200" height="200"><defs><style type="text/css"></style></defs><path d="M512 1024C229.65333333 1024 0 794.34666667 0 512S229.65333333 0 512 0s512 229.65333333 512 512-229.65333333 512-512 512z m0-955.73333333C267.30666667 68.26666667 68.26666667 267.30666667 68.26666667 512s199.04 443.73333333 443.73333333 443.73333333 443.73333333-199.04 443.73333333-443.73333333S756.69333333 68.26666667 512 68.26666667z" fill="#2c2c2c" p-id="42441"></path><path d="M512 819.2c-83.2 0-161.17333333-32.74666667-219.41333333-92.26666667C235.94666667 669.22666667 204.8 592.85333333 204.8 512c0-18.88 15.25333333-34.13333333 34.13333333-34.13333333h546.13333334c18.88 0 34.13333333 15.25333333 34.13333333 34.13333333 0 80.85333333-31.14666667 157.22666667-87.78666667 214.93333333C673.17333333 786.45333333 595.2 819.2 512 819.2zM341.33333333 679.25333333c45.33333333 46.29333333 105.92 71.68 170.66666667 71.68s125.33333333-25.49333333 170.66666667-71.68c35.94666667-36.69333333 58.66666667-83.09333333 65.81333333-133.12H275.52c7.04 50.02666667 29.86666667 96.32 65.81333333 133.12zM358.4 409.6c-28.26666667 0-51.2-22.93333333-51.2-51.2s22.93333333-51.2 51.2-51.2 51.2 22.93333333 51.2 51.2-22.93333333 51.2-51.2 51.2zM665.6 409.6c-28.26666667 0-51.2-22.93333333-51.2-51.2s22.93333333-51.2 51.2-51.2 51.2 22.93333333 51.2 51.2-22.93333333 51.2-51.2 51.2z" fill="#2c2c2c" p-id="42442"></path></svg>