<?xml version="1.0" standalone="no"?><!DOCTYPE svg PUBLIC "-//W3C//DTD SVG 1.1//EN" "http://www.w3.org/Graphics/SVG/1.1/DTD/svg11.dtd"><svg t="1587805878625" class="icon" viewBox="0 0 1024 1024" version="1.1" xmlns="http://www.w3.org/2000/svg" p-id="7101" xmlns:xlink="http://www.w3.org/1999/xlink" width="200" height="200"><defs><style type="text/css"></style></defs><path d="M800.33652868 340.18995212L657.63149606 587.3963569c-41.7154163 72.25705984-133.97884916 96.94577498-206.23590753 55.23036013-72.25705984-41.7154163-96.94577498-133.97884916-55.23036015-206.23590899l142.70503262-247.20640626c41.39616591-71.83139264 133.97884916-96.94577498 206.23590902-55.23035865 36.18173833 20.85770741 60.44478627 54.48544107 70.44797275 92.05059924 9.57751932 37.1394895 5.64009478 78.00357141-15.21761409 114.18530975z" fill="#7B7D80" p-id="7102"></path><path d="M830.23967141 522.26922851c-13.30211024-7.66201546-29.79672593-3.29892372-37.45873992 10.00318652l-58.210032 100.7767827C676.8929515 732.86822924 557.49321563 776.17989753 451.71483893 740.95591188c-15.7496981-4.68234211-30.75447713-11.49302319-45.54642403-19.89995622-18.51653635-10.74810412-34.79831844-23.19887995-49.16459669-37.88440858-75.87523396-74.9174813-94.28535351-194.53005223-38.84215978-290.51807454l58.21003202-100.77678272c7.66201546-13.30211024 3.29892372-29.79672593-10.00318651-37.45874136-13.30211024-7.66201546-29.79672593-3.29892372-37.4587414 10.00318651l-58.21003198 100.77678269c-70.76722317 122.69865959-43.41808658 276.04537951 58.10361518 367.03181078l-53.63410668 93.96610164c-0.85133438 1.38341986-0.85133438 2.66042146-1.27700158 4.36309172l14.68552862 74.38539731c0.7449176 4.25667492 4.57592532 6.38501239 8.51334984 4.89517719l70.66080639-25.75288462c1.48983666-0.42566721 2.55400467-1.06416946 3.29892373-2.55400464l52.4635204-92.05059927c132.2761789 49.69668215 285.41006523-2.55400467 358.41204265-128.97725517l58.21003201-100.7767827c7.76843225-13.30211024 3.40534052-29.79672593-9.89676971-37.45874139z" fill="#7B7D80" p-id="7103"></path></svg>